<!-- icon666.com - MILLIONS vector ICONS FREE --><svg version="1.1" id="Capa_1" xmlns="http://www.w3.org/2000/svg" xmlns:xlink="http://www.w3.org/1999/xlink" x="0px" y="0px" viewBox="0 0 60 60" style="enable-background:new 0 0 60 60;" xml:space="preserve"><g><g><path d="M59,0.992H1c-0.6,0-1,0.4-1,1v44c0,0.6,0.4,1,1,1h29v-2H2v-42h56v42h-9v2h10c0.6,0,1-0.4,1-1v-44 C60,1.392,59.6,0.992,59,0.992z"></path><path d="M5,6.992v4h2v-3h3v-2H6C5.4,5.992,5,6.392,5,6.992z"></path><path d="M5,40.992c0,0.6,0.4,1,1,1h4v-2H7v-3H5V40.992z"></path><path d="M55,6.992c0-0.6-0.4-1-1-1h-4v2h3v3h2V6.992z"></path><path d="M50,41.992h4c0.6,0,1-0.4,1-1v-4h-2v3h-3V41.992z"></path><rect x="9" y="18.992" width="42" height="2"></rect><rect x="9" y="23.992" width="42" height="2"></rect><rect x="9" y="28.992" width="42" height="2"></rect><rect x="14" y="34.992" width="4" height="2"></rect><rect x="20" y="34.992" width="4" height="2"></rect><rect x="26" y="34.992" width="4" height="2"></rect><rect x="14" y="39.992" width="4" height="2"></rect><rect x="20" y="39.992" width="4" height="2"></rect><rect x="26" y="39.992" width="4" height="2"></rect><path d="M32,15.992c1.7,0,3-1.3,3-3v-4c0-1.7-1.3-3-3-3h-4c-1.7,0-3,1.3-3,3v4c0,1.7,1.3,3,3,3H32z M27,12.992v-4c0-0.6,0.4-1,1-1 h4c0.6,0,1,0.4,1,1v4c0,0.6-0.4,1-1,1h-4C27.4,13.992,27,13.592,27,12.992z"></path><path d="M39.5,33.192c-4.6,0-8.3,3.8-8.3,8.4c0,2,0.7,3.8,1.8,5.2v11.2c0,0.3,0.2,0.7,0.5,0.9c0.3,0.1,0.7,0.2,1,0l5-2.6l5,2.6 c0.2,0.1,0.3,0.1,0.5,0.1s0.4,0,0.4-0.1c0.3-0.2,0.5-0.6,0.5-0.9v-11.1c1.2-1.5,1.9-3.3,1.9-5.3 C47.8,36.992,44.1,33.192,39.5,33.192z M39.5,35.192c3.5,0,6.3,2.9,6.3,6.4c0,1.7-0.7,3.2-1.7,4.4h-0.2v0.2 c-1.1,1.1-2.7,1.8-4.4,1.8c-1.8,0-3.4-0.7-4.5-1.9v-0.1h-0.1c-1.1-1.2-1.7-2.7-1.7-4.4C33.2,38.092,36,35.192,39.5,35.192z M39.9,54.292c-0.3-0.1-0.6-0.1-0.9,0l-4,2.1v-7.8c1.3,0.9,2.8,1.4,4.5,1.4c1.6,0,3.1-0.5,4.4-1.3v7.7L39.9,54.292z"></path><rect x="37" y="39.992" width="5" height="2"></rect></g></g></svg>