<!-- icon666.com - MILLIONS vector ICONS FREE --><svg version="1.1" id="Layer_1" xmlns="http://www.w3.org/2000/svg" xmlns:xlink="http://www.w3.org/1999/xlink" x="0px" y="0px" viewBox="0 0 512.001 512.001" style="enable-background:new 0 0 512.001 512.001;" xml:space="preserve"><g><g><path d="M427.147,182.265c-12.461-8.533-16.329-25.475-8.803-38.57c12.482-21.722,10.455-48.415-5.166-68.002 c-15.621-19.588-41.191-27.502-65.147-20.167c-14.444,4.424-30.099-3.118-35.644-17.165C303.187,15.057,281.055,0,256.001,0 s-47.187,15.057-56.387,38.361c-5.545,14.048-21.203,21.586-35.644,17.165c-23.951-7.336-49.526,0.579-65.147,20.167 c-15.622,19.588-17.649,46.281-5.166,68.002c7.526,13.094,3.659,30.037-8.803,38.57c-20.672,14.154-30.427,39.083-24.853,63.509 c5.574,24.426,25.18,42.652,49.946,46.437c14.929,2.281,25.765,15.867,24.667,30.931c-0.334,4.575-0.152,9.086,0.498,13.475 L85.606,446.118c-2.517,5.568-1.584,12.089,2.393,16.728c3.978,4.64,10.278,6.554,16.167,4.918l53.859-14.992l24.324,50.339 c2.629,5.442,8.138,8.891,14.17,8.891c0.066,0,0.134,0,0.201-0.001c6.11-0.078,11.622-3.685,14.14-9.253l44.227-97.827 l47.312,98.175c2.626,5.45,8.139,8.906,14.177,8.906c0.062,0,0.124,0,0.186-0.001c6.11-0.071,11.626-3.673,14.15-9.239 l23.084-50.918l54.209,13.67c5.926,1.496,12.179-0.577,16.042-5.311c3.863-4.735,4.636-11.278,1.984-16.782l-49.915-103.577 c1.1-5.39,1.486-10.997,1.069-16.701c-1.099-15.063,9.737-28.65,24.667-30.931c24.766-3.783,44.371-22.011,49.947-46.437 C457.575,221.348,447.818,196.42,427.147,182.265z M196.046,459.107l-15.4-31.872c-2.679-5.544-8.253-8.893-14.169-8.893 c-1.4,0-2.819,0.188-4.222,0.578l-34.1,9.492l25.545-56.502c4.393,4.074,9.448,7.547,15.072,10.256 c22.016,10.601,47.74,7.087,66.068-8.868L196.046,459.107z M383.262,426.76l-34.322-8.654c-7.387-1.863-15.038,1.828-18.183,8.762 l-14.615,32.239l-42.971-89.169c0.901,0.656,1.775,1.362,2.61,2.133c11.502,10.63,26.158,16.163,41.045,16.162 c8.928,0,17.94-1.99,26.401-6.065c5.194-2.501,9.896-5.66,14.046-9.337L383.262,426.76z M421.311,238.769 c-2.132,9.345-9.56,20.118-24.013,22.325c-15.121,2.31-28.702,10.169-38.239,22.13c-9.538,11.959-14.178,26.949-13.065,42.205 c1.063,14.58-7.786,24.219-16.422,28.378c-8.635,4.16-21.69,5.069-32.427-4.854c-11.235-10.383-25.846-16.1-41.144-16.1 c-15.297,0-29.91,5.718-41.145,16.1c-10.737,9.922-23.791,9.013-32.426,4.854c-8.636-4.159-17.485-13.798-16.422-28.379 c1.113-15.258-3.526-30.247-13.065-42.206c-9.537-11.96-23.118-19.82-38.239-22.13c-14.452-2.208-21.88-12.98-24.013-22.325 c-2.133-9.345-0.114-22.274,11.948-30.534c12.622-8.642,21.448-21.616,24.853-36.529c3.405-14.913,1.081-30.431-6.541-43.695 c-7.284-12.675-3.494-25.2,2.482-32.694c5.977-7.493,17.344-13.975,31.322-9.696c14.626,4.48,30.273,3.291,44.054-3.346 c13.783-6.637,24.466-18.128,30.084-32.357c5.366-13.596,17.522-18.441,27.107-18.441s21.742,4.845,27.109,18.443 c5.617,14.229,16.3,25.72,30.084,32.358c13.782,6.637,29.428,7.826,44.054,3.346c13.974-4.283,25.344,2.201,31.322,9.696 c5.976,7.495,9.767,20.019,2.482,32.694c-7.623,13.263-9.945,28.781-6.541,43.695c3.405,14.914,12.23,27.887,24.853,36.53 C421.426,216.496,423.444,229.425,421.311,238.769z"></path></g></g><g><g><path d="M256.001,83.135c-64.95,0-117.792,52.841-117.792,117.791s52.84,117.792,117.792,117.792s117.79-52.841,117.79-117.792 S320.951,83.135,256.001,83.135z M256.001,287.242c-47.594,0-86.315-38.721-86.315-86.315s38.72-86.315,86.315-86.315 c47.595,0,86.315,38.721,86.315,86.315C342.315,248.521,303.595,287.242,256.001,287.242z"></path></g></g><g><g><path d="M309.443,174.292c-5.126-7.017-14.969-8.554-21.992-3.427l-44.037,32.165l-7.83-11.149 c-4.996-7.114-14.814-8.829-21.924-3.834c-7.114,4.995-8.83,14.812-3.835,21.924l17.045,24.269 c2.428,3.457,6.144,5.793,10.313,6.482c0.854,0.141,1.712,0.211,2.566,0.211c3.314,0,6.571-1.048,9.283-3.029l56.985-41.621 C313.035,191.157,314.569,181.311,309.443,174.292z"></path></g></g></svg>