<!-- icon666.com - MILLIONS vector ICONS FREE --><svg version="1.1" id="Capa_1" xmlns="http://www.w3.org/2000/svg" xmlns:xlink="http://www.w3.org/1999/xlink" x="0px" y="0px" viewBox="0 0 512 512" style="enable-background:new 0 0 512 512;" xml:space="preserve"><g><g><path d="M484.039,173.385l-28.613-43.788c10.262-4.471,17.457-14.708,17.457-26.597c0-15.99-13.009-29-29-29h-124 c-15.991,0-29,13.01-29,29c0,10.163,5.259,19.116,13.195,24.296l-30.117,46.088c-7.156,10.952-12.972,22.596-17.427,34.708 c-0.976,0.474-1.895,1.106-2.706,1.917c-14.367,14.368-33.47,22.28-53.788,22.28s-39.421-7.912-53.789-22.28 c-33.493-33.494-85.758-37.012-123.227-10.604c4.548-26.808,14.172-52.608,28.485-76L87.863,64h124.274l36.352,59.405 c2.884,4.711,9.039,6.194,13.75,3.31c4.711-2.883,6.193-9.038,3.31-13.749l-30.727-50.212C248.189,58.913,258,46.584,258,32 c0-17.645-14.355-32-32-32H74C56.355,0,42,14.355,42,32c0,14.584,9.811,26.913,23.178,30.753l-30.727,50.212 C11.913,149.798,0,192.09,0,235.271V443c0,38.047,30.953,69,69,69h162c14.092,0,27.879-4.359,39.383-12.353 C280.637,507.396,293.392,512,307.206,512h143.589C484.543,512,512,484.543,512,450.794V267.289 C512,233.849,502.331,201.377,484.039,173.385z M62,32c0-6.617,5.383-12,12-12h152c6.617,0,12,5.383,12,12s-5.383,12-12,12h-8.258 H82.258H74C67.383,44,62,38.617,62,32z M231,492H69c-27.019,0-49-21.981-49-49V235.271c0-2.862,0.064-5.719,0.178-8.571 c1.595-0.448,3.101-1.294,4.356-2.549c29.658-29.659,77.916-29.661,107.576,0c18.145,18.145,42.27,28.138,67.931,28.138 c17.232,0,33.768-4.513,48.269-12.968c-1.514,9.195-2.31,18.54-2.31,27.968v183.505c0,12.614,3.838,24.347,10.404,34.098 C248.789,489.504,239.983,492,231,492z M319.883,94h124c4.962,0,9,4.037,9,9s-4.038,9-9,9h-5.367H319.883c-4.962,0-9-4.037-9-9 S314.92,94,319.883,94z M492,450.794C492,473.515,473.515,492,450.794,492H307.206C284.485,492,266,473.515,266,450.794V286.639 c14.159-13.331,32.556-20.662,52.089-20.662c20.318,0,39.421,7.912,53.788,22.28c18.729,18.729,43.33,28.093,67.931,28.093 c18.191,0,36.375-5.136,52.192-15.376V450.794z M492,275.631c-29.769,28.111-76.844,27.621-105.98-1.516 c-18.145-18.145-42.27-28.138-67.931-28.138c-18.712,0-36.604,5.319-51.959,15.232c1.089-27.389,9.523-53.854,24.573-76.884 L324.895,132h108.21l34.192,52.325C483.458,209.056,492,237.744,492,267.289V275.631z"></path></g></g><g><g><path d="M57.07,295.27c-1.86-1.871-4.44-2.93-7.07-2.93s-5.21,1.06-7.07,2.93c-1.86,1.86-2.93,4.431-2.93,7.07 c0,2.63,1.07,5.2,2.93,7.07c1.86,1.859,4.44,2.93,7.07,2.93s5.21-1.07,7.07-2.93c1.86-1.87,2.93-4.44,2.93-7.07 C60,299.7,58.93,297.13,57.07,295.27z"></path></g></g><g><g><path d="M50,329.868c-5.523,0-10,4.478-10,10v100.859c0,5.522,4.477,10,10,10s10-4.478,10-10V339.868 C60,334.346,55.523,329.868,50,329.868z"></path></g></g><g><g><path d="M475.07,433.66c-1.86-1.87-4.43-2.931-7.07-2.931c-2.63,0-5.21,1.061-7.07,2.931c-1.86,1.859-2.93,4.43-2.93,7.069 c0,2.63,1.07,5.21,2.93,7.07c1.86,1.86,4.44,2.93,7.07,2.93s5.21-1.069,7.07-2.93c1.86-1.861,2.93-4.44,2.93-7.07 C478,438.089,476.93,435.519,475.07,433.66z"></path></g></g><g><g><path d="M468,336.936c-5.523,0-10,4.478-10,10v56.26c0,5.522,4.477,10,10,10s10-4.478,10-10v-56.26 C478,341.413,473.523,336.936,468,336.936z"></path></g></g></svg>